<?xml version="1.0" standalone="no"?>
<!DOCTYPE svg PUBLIC "-//W3C//DTD SVG 20010904//EN"
 "http://www.w3.org/TR/2001/REC-SVG-20010904/DTD/svg10.dtd">
<svg version="1.0" xmlns="http://www.w3.org/2000/svg"
 width="100.000000pt" height="100.000000pt" viewBox="0 0 100.000000 100.000000"
 preserveAspectRatio="xMidYMid meet">
<metadata>
Created by potrace 1.16, written by Peter Selinger 2001-2019
</metadata>
<g transform="translate(0.000000,100.000000) scale(0.008726,-0.007949)"
fill="#000000" stroke="none">
<path d="M1390 8296 l0 -4286 1438 0 c856 0 1504 4 1602 10 1142 70 2061 534
2804 1415 l76 90 -2 990 c-1 545 -3 970 -5 945 -45 -596 -190 -1158 -423
-1635 -495 -1015 -1376 -1627 -2465 -1715 -158 -13 -2092 -10 -2087 3 1 4 2
1893 2 4198 l0 4190 1033 -4 c1013 -3 1035 -4 1172 -26 331 -53 589 -136 875
-281 837 -427 1505 -1265 1848 -2320 144 -441 221 -884 242 -1378 6 -131 10
-1640 10 -3568 0 -3169 -1 -3342 -18 -3356 -54 -49 -331 -166 -432 -183 -39
-7 -42 -6 -35 11 43 97 65 189 66 267 1 129 -38 203 -129 244 -47 22 -64 25
-140 21 -66 -3 -101 -10 -144 -30 -72 -33 -142 -98 -181 -167 -31 -56 -162
-172 -360 -321 -259 -194 -466 -282 -566 -240 -110 45 -65 316 93 559 50 79
55 100 28 124 -35 32 -68 21 -112 -34 -105 -133 -169 -286 -177 -424 -10 -160
47 -252 171 -276 149 -29 389 103 774 425 57 47 108 86 113 86 5 0 9 -11 9
-25 0 -35 36 -125 64 -158 23 -28 23 -30 9 -95 -27 -125 -2 -235 61 -273 41
-25 109 -24 162 2 48 23 145 121 189 192 24 38 38 49 70 58 95 24 199 65 331
129 78 39 144 70 148 70 3 0 6 -344 6 -765 l0 -765 460 0 460 0 -3 4318 c-3
4758 2 4340 -62 4712 -99 567 -326 1133 -648 1615 -380 569 -887 1041 -1474
1374 -429 243 -944 424 -1425 501 -338 54 -322 53 -1930 57 l-1498 4 0 -4285z
m5555 -6466 c107 -52 121 -207 35 -396 l-30 -66 -77 4 c-98 5 -187 41 -197 82
-4 16 -15 28 -32 32 -35 9 -58 58 -58 126 -1 47 4 64 29 100 52 74 166 136
254 137 19 1 53 -8 76 -19z m-132 -518 c48 -2 87 -8 87 -13 0 -20 -105 -119
-153 -144 -68 -36 -100 -30 -117 20 -11 34 -6 106 11 152 8 22 9 22 46 6 21
-8 77 -18 126 -21z"/>
<path d="M4430 7909 l0 -462 43 37 c369 317 645 483 1002 599 400 131 773 177
1628 203 l207 6 0 39 0 39 -1440 0 -1440 0 0 -461z"/>
<path d="M8570 8331 l0 -39 208 -6 c549 -16 852 -39 1108 -81 597 -100 1026
-297 1470 -677 51 -43 95 -78 98 -78 3 0 6 207 6 460 l0 460 -1445 0 -1445 0
0 -39z"/>
<path d="M2387 3439 c-431 -45 -1018 -238 -1612 -529 -423 -207 -673 -387
-747 -539 -43 -86 -21 -177 59 -252 117 -111 278 -182 856 -379 196 -68 357
-126 357 -130 0 -4 -48 -20 -107 -35 -355 -93 -597 -211 -639 -312 -73 -173
186 -303 637 -320 413 -16 734 86 779 247 25 88 -4 183 -76 252 -52 49 -149
109 -228 143 -36 15 -66 31 -66 35 0 14 389 82 713 125 192 26 247 30 247 19
0 -4 -31 -91 -70 -194 -125 -336 -233 -690 -276 -899 -27 -134 -7 -231 48
-231 24 0 34 27 20 51 -19 29 -14 102 14 228 74 331 369 1107 672 1765 l96
209 400 -7 c221 -4 480 -11 576 -16 104 -4 182 -4 193 2 26 13 23 66 -5 78
-38 16 -363 39 -713 52 -181 6 -331 12 -333 13 -1 1 40 86 93 189 79 154 96
193 93 224 -2 29 -9 40 -31 50 -62 30 -106 -24 -244 -295 l-88 -173 -147 0
-147 0 69 103 c104 154 139 262 119 358 -32 146 -198 201 -512 168z m324 -87
c82 -32 104 -60 104 -131 0 -44 -7 -71 -33 -124 -34 -68 -121 -190 -184 -258
l-34 -36 -214 -6 c-281 -8 -469 -25 -497 -43 -31 -20 -29 -52 3 -64 14 -6 85
-10 159 -10 214 0 383 -30 426 -76 13 -14 34 -24 50 -24 37 0 106 -54 146
-114 90 -133 85 -313 -15 -556 l-38 -95 -105 -12 c-232 -28 -487 -66 -723
-110 l-249 -45 -126 41 c-69 22 -252 75 -406 117 -359 98 -553 162 -690 229
-251 124 -304 239 -180 391 48 58 211 188 322 257 474 293 1279 590 1838 677
165 26 366 22 446 -8z m236 -674 c-3 -7 -47 -107 -96 -223 -50 -115 -99 -226
-108 -245 l-17 -35 -6 95 c-8 126 -44 206 -127 285 l-57 55 39 40 39 40 169 0
c132 0 168 -3 164 -12z m-1470 -1129 c202 -80 343 -171 378 -245 59 -124 -130
-227 -497 -270 -309 -36 -632 6 -727 95 -137 128 61 265 589 410 80 22 153 40
162 40 10 1 52 -13 95 -30z"/>
<path d="M5768 3158 c-9 -7 -73 -107 -144 -223 -141 -233 -381 -608 -501 -785
l-78 -115 -74 -7 c-164 -14 -396 -178 -549 -385 -73 -99 -304 -276 -457 -347
-181 -86 -306 -68 -350 49 -26 66 -17 244 20 396 15 64 25 124 22 133 -4 9
-18 21 -32 28 -22 10 -29 8 -55 -17 -17 -16 -81 -101 -142 -190 -188 -270
-229 -326 -292 -392 -89 -96 -141 -116 -172 -67 -15 22 -15 32 -4 82 22 99
125 309 237 481 30 46 57 96 60 112 13 65 -58 82 -110 27 -86 -92 -221 -336
-266 -482 -54 -177 4 -314 125 -291 53 10 161 121 332 342 73 95 138 175 143
179 7 4 8 -20 4 -72 -16 -183 57 -337 184 -392 128 -54 326 21 570 217 35 28
67 51 72 51 4 0 -3 -24 -16 -52 -51 -110 -56 -199 -14 -252 62 -79 196 22 423
319 85 112 225 305 277 384 12 20 24 24 66 25 27 1 58 7 67 15 25 21 20 66 -9
89 l-25 20 219 336 c253 387 293 446 304 446 4 0 1 -15 -7 -32 -525 -1210
-818 -1996 -856 -2294 -16 -123 9 -189 70 -182 32 4 35 42 3 46 -26 4 -36 38
-27 90 12 74 66 279 101 387 107 330 412 1054 809 1915 90 197 164 362 164
369 0 17 -38 51 -58 51 -10 0 -25 -6 -34 -12z m-833 -1285 c-46 -72 -173 -249
-249 -347 -189 -242 -313 -353 -353 -313 -27 27 -7 81 77 205 145 217 329 393
483 462 56 26 62 25 42 -7z"/>
</g>
</svg>
